<?xml version="1.0" encoding="utf-8"?>
<!-- Generator: Adobe Illustrator 25.2.1, SVG Export Plug-In . SVG Version: 6.00 Build 0)  -->
<svg version="1.1" id="Camada_1" xmlns="http://www.w3.org/2000/svg" xmlns:xlink="http://www.w3.org/1999/xlink" x="0px" y="0px"
	 viewBox="0 0 1633.3 415.1" style="enable-background:new 0 0 1633.3 415.1;" xml:space="preserve">
<style type="text/css">
	.st0{fill:#6E64EC;}
	.st1{font-family:'Montserrat-Bold';}
	.st2{font-size:378.9919px;}
	.st3{letter-spacing:1;}
</style>
<path class="st0" d="M191.2,47.1h-81.5C49.1,47.1,0,96.3,0,156.9c0,0,0.2,78.1,0.5,96.5c0,1.1,0.9,1.9,2,1.9c0.4,0,0.8-0.1,1.1-0.4
	c10.6-8.2,43.6-35.3,80.7-85.8c30.5-41.5,42.6-63.2,47.3-73c2.3-4.8,5.6-9.2,9.6-12.8l4.9-4.4c1.3-1.2,3.4-1.1,4.6,0.3
	c0.4,0.4,0.7,1,0.8,1.6c1.1,5.9,2,17.7-0.6,40.2c-0.4,3.2,1.9,6.1,5.1,6.4c0.1,0,0.2,0,0.3,0c15.6,0.9,44.8,4.5,44.8,4.5
	c7.6,0.7,13.8,6.5,15,14.1l5.8,38.3c0.3,1.9,1.5,3.4,3.3,4.1l40.4,16.2c4,1.6,6,6.1,4.4,10.1c-0.2,0.5-0.5,1-0.8,1.5L248.6,247
	c-3.8,5.7-10.2,9.2-17.1,9.4c-11.4,0.2-29.4-0.4-45.2-4.7c-3.6-1-6-4.3-5.9-8c0.4-12.4-0.1-44.6-11-77.5c-0.2-0.6-0.8-0.9-1.4-0.7
	c-0.2,0.1-0.4,0.2-0.5,0.4c-2,2.8-6.3,8.4-9.1,12.6c-1.1,1.6-2.9,2.5-4.8,2.4l-21.1-1.5c-7.2-0.5-14.1,3.2-17.6,9.6l-10.3,18.7
	c-2.5,4.6-6.5,8-11,10.5c-2.3,1.3-3.2,4-2.3,6.4l7.7,18.6c0.7,1.8,2.2,3.1,4.1,3.7l18.2,5.6c3.5,1.1,5.5,4.9,4.4,8.4c0,0,0,0,0,0
	l-10,32.1c-5.3,17.1-28.8,39.9-36.8,47.6c-0.8,0.7-0.8,1.9,0,2.7c0.2,0.2,0.5,0.4,0.9,0.5c9.7,2.8,19.8,4.1,30,4.1h81.4
	c60.6,0,109.7-49.1,109.7-109.7v-81.5C301,96.3,251.8,47.1,191.2,47.1z"/>
<text transform="matrix(1.0084 0 0 1 338.2778 337.1436)" class="st0 st1 st2 st3">lifepet</text>
</svg>
